# xmcd
#
# Track frame offsets:
# 150
# 24898
# 36075
# 45449
# 57826
# 68774
# 78456
# 86173
# 104475
# 114451
# 125324
# 134473
# 147279
# 165597
# 173172
# 182771
# 192221
# 200999
# 221248
# 233098
#
# Disc length: 3252 seconds
#
#
# Revision: 0
# Processed by: cddbd v1.5.1PL0 Copyright (c) Steve Scherf et al.
# Submitted via: FreeRIP 2.00 
#
DISCID=1d0cb214
DTITLE=Peter Ratzenbeck - Acoustically Yours
DYEAR=2003
DGENRE=Acoustic
TTITLE0=Clairvojance
TTITLE1=Sunday´s Fantasy
TTITLE2=Welfenstein
TTITLE3=Jerry´s Breakdown
TTITLE4=Wackelstein Landler
TTITLE5=Bonny George Campell
TTITLE6=Morgan Mawgan
TTITLE7=Odyssee
TTITLE8=An Irish Dream
TTITLE9=Mr. Ireland
TTITLE10=Planxty George Brabazon
TTITLE11=Kaliyuga Express
TTITLE12=Brocèliande
TTITLE13=Forty Shades Of Green
TTITLE14=Lady Madonna
TTITLE15=Connemara Bay
TTITLE16=Waldviertler Naechte
TTITLE17=Brandenberg Rag/Handicap Rag
TTITLE18=Outremer
TTITLE19=Si Behag, S Mhor
EXTD=
EXTT0=
EXTT1=
EXTT2=
EXTT3=
EXTT4=
EXTT5=
EXTT6=
EXTT7=
EXTT8=
EXTT9=
EXTT10=
EXTT11=
EXTT12=
EXTT13=
EXTT14=
EXTT15=
EXTT16=
EXTT17=
EXTT18=
EXTT19=
PLAYORDER=
